# xmcd CD database file
#
# Track frame offsets:
#	150
#	12930
#	26662
#	39384
#	52465
#	66140
#	79409
#	92771
#	106716
#	120286
#	132910
#	144415
#	157881
#	171509
#	182847
#	195830
#	209411
#	221936
#	231942
#	245580
#
# Disc length: 3438 seconds
#
# Revision: 1
# Processed by: cddbd v1.5.1PL0 Copyright (c) Steve Scherf et al.
# Submitted via: CDex 1.51
#
DISCID=1d0d6c14
DTITLE=B.B.King - Singin' The Blues
DYEAR=1900
DGENRE=Blues
TTITLE0=Please Love Me
TTITLE1=You Upset Me Baby
TTITLE2=Everyday I Have The Blues
TTITLE3=Bad Luck
TTITLE4=3 O'Clock Blues
TTITLE5=Blind Love
TTITLE6=Woke Up This Morning
TTITLE7=You Know I Love You
TTITLE8=Sweet Little Angel
TTITLE9=Ten Long Years
TTITLE10=Did You Ever Love A Woman
TTITLE11=Crying Won't Help You
TTITLE12=Woke Up This Morning (Alt. Take)
TTITLE13=Bye Bye Baby
TTITLE14=The Woman I Love
TTITLE15=Sneakin' Around
TTITLE16=Shut Your Mouth
TTITLE17=Jump With You Baby
TTITLE18=Houserocker
TTITLE19=Why I Sing The Blues
EXTD=
EXTT0=
EXTT1=
EXTT2=
EXTT3=
EXTT4=
EXTT5=
EXTT6=
EXTT7=
EXTT8=
EXTT9=
EXTT10=
EXTT11=
EXTT12=
EXTT13=
EXTT14=
EXTT15=
EXTT16=
EXTT17=
EXTT18=
EXTT19=
PLAYORDER=
